# xmcd CD database file
#
# Track frame offsets:
#	150
#	19312
#	40275
#
# Disc length: 789 seconds
#
# Revision: 1
# Processed by: cddbd v1.5.2PL0 Copyright (c) Steve Scherf et al.
# Submitted via: CDex 1.70beta2
#
DISCID=1f031303
DTITLE=中西圭三 - A.C.E.
DYEAR=1994
DGENRE=JPop
TTITLE0=A.C.E
TTITLE1=まわりみち
TTITLE2=A.C.E. (Original Karaoke)
EXTD=YEAR: 1994
EXTT0=
EXTT1=
EXTT2=
PLAYORDER=
